<?xml version="1.0" encoding="UTF-8" standalone="no"?>
<!-- Created with Inkscape (http://www.inkscape.org/) -->

<svg
   width="748.63708mm"
   height="124.93036mm"
   viewBox="0 0 748.63709 124.93036"
   version="1.1"
   id="svg1"
   xml:space="preserve"
   sodipodi:docname="verdicare.svg"
   inkscape:version="1.3 (0e150ed6c4, 2023-07-21)"
   xmlns:inkscape="http://www.inkscape.org/namespaces/inkscape"
   xmlns:sodipodi="http://sodipodi.sourceforge.net/DTD/sodipodi-0.dtd"
   xmlns:xlink="http://www.w3.org/1999/xlink"
   xmlns="http://www.w3.org/2000/svg"
   xmlns:svg="http://www.w3.org/2000/svg"><sodipodi:namedview
     id="namedview1"
     pagecolor="#505050"
     bordercolor="#eeeeee"
     borderopacity="1"
     inkscape:showpageshadow="0"
     inkscape:pageopacity="0"
     inkscape:pagecheckerboard="0"
     inkscape:deskcolor="#505050"
     inkscape:document-units="mm"
     inkscape:zoom="0.3972441"
     inkscape:cx="1414.7472"
     inkscape:cy="-144.74727"
     inkscape:window-width="1920"
     inkscape:window-height="1017"
     inkscape:window-x="-8"
     inkscape:window-y="-8"
     inkscape:window-maximized="1"
     inkscape:current-layer="layer1" /><defs
     id="defs1"><rect
       x="910.5481"
       y="136.71893"
       width="2477.3469"
       height="546.87573"
       id="rect1" /><linearGradient
       id="linearGradient16"><stop
         style="stop-color:#98d244;stop-opacity:1;"
         offset="0"
         id="stop16" /><stop
         style="stop-color:#0b8d79;stop-opacity:1;"
         offset="1"
         id="stop17" /></linearGradient><linearGradient
       xlink:href="#linearGradient16"
       id="linearGradient17"
       x1="61.498173"
       y1="32.919609"
       x2="162.78928"
       y2="197.51767"
       gradientUnits="userSpaceOnUse" /><linearGradient
       xlink:href="#linearGradient16"
       id="linearGradient2"
       x1="1813.2355"
       y1="-245.03569"
       x2="1646.2579"
       y2="717.8667"
       gradientUnits="userSpaceOnUse" /><linearGradient
       xlink:href="#linearGradient16"
       id="linearGradient2-8"
       x1="1813.2355"
       y1="-245.03569"
       x2="1646.2579"
       y2="717.8667"
       gradientUnits="userSpaceOnUse" /><rect
       x="910.5481"
       y="136.71893"
       width="2477.3469"
       height="546.87573"
       id="rect1-3" /><linearGradient
       inkscape:collect="always"
       xlink:href="#linearGradient16"
       id="linearGradient3"
       x1="1705.6746"
       y1="-90.826683"
       x2="1705.6746"
       y2="608.47144"
       gradientUnits="userSpaceOnUse" /></defs><g
     id="layer1"
     transform="translate(-42.329199,-42.436169)"><path
       id="path8"
       style="display:inline;opacity:1;fill:url(#linearGradient17);fill-opacity:1;stroke:none;stroke-width:1.965;stroke-linecap:round;stroke-linejoin:miter;stroke-dasharray:none;stroke-opacity:1"
       d="m 108.49984,42.436169 v 32.075562 l 22.40018,-26.562203 a 62.670673,62.670673 0 0 0 -22.40018,-5.513359 z m -7.00009,0.143661 a 62.670673,62.670673 0 0 0 -22.403803,5.36453 l 22.403803,26.566854 z m 35.75751,8.689909 -28.75742,34.101277 V 115.95726 L 152.34419,63.966121 A 62.670673,62.670673 0 0 0 137.25726,51.269739 Z m -64.44465,0.08268 A 62.670673,62.670673 0 0 0 57.644027,63.952169 L 101.49975,115.95675 V 85.371016 Z m 83.90909,18.280021 -48.22186,57.18359 v 30.5847 L 165.72787,89.538721 A 62.670673,62.670673 0 0 0 156.7217,69.632442 Z M 53.337313,69.70272 a 62.670673,62.670673 0 0 0 -8.971029,19.94762 l 57.133466,67.74987 V 126.81603 Z M 167.32519,98.502515 109.25276,167.36653 a 62.670673,62.670673 0 0 0 58.41814,-62.36674 62.670673,62.670673 0 0 0 -0.34571,-6.497275 z M 42.784985,98.633773 a 62.670673,62.670673 0 0 0 -0.455786,6.366017 62.670673,62.670673 0 0 0 58.417621,62.36674 z" /><path
       style="font-size:268.676px;font-family:Montserrat;-inkscape-font-specification:Montserrat;white-space:pre;fill:url(#linearGradient3)"
       d="m 994.64441,383.65712 -83.28955,-188.0732 h 21.49408 L 1010.765,372.6414 h -11.82177 l 78.45337,-177.05748 h 20.1507 l -83.2895,188.0732 z M 1142.4164,279.67951 h 99.4101 v 16.92658 h -99.4101 z m 2.1494,86.78234 h 113.1126 v 17.19527 h -132.9946 v -188.0732 h 128.9644 v 17.19526 h -109.0824 z m 159.8624,17.19527 v -188.0732 h 70.3931 q 23.9121,0 41.1074,7.7916 17.1953,7.52293 26.3303,22.03143 9.4036,14.23983 9.4036,34.65921 0,19.88202 -9.4036,34.39053 -9.135,14.23982 -26.3303,22.03143 -17.1953,7.52292 -41.1074,7.52292 h -59.3774 l 8.8663,-9.13498 v 68.78106 z m 128.4271,0 -48.3617,-68.24371 h 21.4941 l 48.6303,68.24371 z m -108.5451,-67.169 -8.8663,-9.40366 h 58.84 q 28.211,0 42.7195,-12.3591 14.7772,-12.35909 14.7772,-34.6592 0,-22.56879 -14.7772,-34.92788 -14.5085,-12.3591 -42.7195,-12.3591 h -58.84 l 8.8663,-9.40366 z m 174.3706,67.169 v -188.0732 h 76.5727 q 30.0917,0 52.6605,12.09042 22.8374,11.82174 35.4652,33.04715 12.6278,21.2254 12.6278,48.89903 0,27.67362 -12.6278,48.89903 -12.6278,21.2254 -35.4652,33.31582 -22.5688,11.82175 -52.6605,11.82175 z m 19.882,-17.19527 h 55.616 q 24.9868,0 43.2568,-9.67233 18.5387,-9.94102 28.7483,-27.13628 10.2097,-17.46394 10.2097,-40.03272 0,-22.83746 -10.2097,-40.03273 -10.2096,-17.19526 -28.7483,-26.8676 -18.27,-9.94101 -43.2568,-9.94101 h -55.616 z m 202.0444,17.19527 v -188.0732 h 19.882 v 188.0732 z m 162.8177,1.61205 q -21.2255,0 -39.2267,-6.98557 -18.0013,-7.25426 -31.1665,-20.1507 -13.1651,-12.89645 -20.688,-30.36039 -7.2543,-17.46394 -7.2543,-38.15199 0,-20.68805 7.2543,-38.15199 7.5229,-17.46394 20.688,-30.36039 13.4338,-12.89645 31.4351,-19.88202 18.0013,-7.25426 39.2267,-7.25426 20.4194,0 38.4207,6.98558 18.0013,6.7169 30.3604,20.41937 l -12.6278,12.62778 q -11.5531,-11.82175 -25.5242,-16.92659 -13.9712,-5.37352 -30.0917,-5.37352 -16.9266,0 -31.4351,5.91087 -14.5085,5.6422 -25.2556,16.38924 -10.747,10.47836 -16.9265,24.71819 -5.9109,13.97115 -5.9109,30.89774 0,16.92659 5.9109,31.16641 6.1795,13.97115 16.9265,24.71819 10.7471,10.47837 25.2556,16.38924 14.5085,5.6422 31.4351,5.6422 16.1205,0 30.0917,-5.37352 13.9711,-5.37352 25.5242,-17.19527 l 12.6278,12.62777 q -12.3591,13.70248 -30.3604,20.68806 -18.0013,6.98557 -38.6893,6.98557 z m 76.6439,-1.61205 85.9764,-188.0732 h 19.6133 l 85.9763,188.0732 h -20.9567 l -78.9907,-176.52013 h 8.0602 l -78.9907,176.52013 z m 33.8532,-50.24242 5.9109,-16.12056 h 109.3511 l 5.9109,16.12056 z m 188.8794,50.24242 v -188.0732 h 70.3931 q 23.9122,0 41.1075,7.7916 17.1952,7.52293 26.3302,22.03143 9.4037,14.23983 9.4037,34.65921 0,19.88202 -9.4037,34.39053 -9.135,14.23982 -26.3302,22.03143 -17.1953,7.52292 -41.1075,7.52292 h -59.3774 l 8.8664,-9.13498 v 68.78106 z m 128.4272,0 -48.3617,-68.24371 h 21.4941 l 48.6303,68.24371 z m -108.5451,-67.169 -8.8664,-9.40366 h 58.8401 q 28.211,0 42.7195,-12.3591 14.7771,-12.35909 14.7771,-34.6592 0,-22.56879 -14.7771,-34.92788 -14.5085,-12.3591 -42.7195,-12.3591 h -58.8401 l 8.8664,-9.40366 z m 192.1032,-36.80861 h 99.4101 v 16.92658 h -99.4101 z m 2.1494,86.78234 h 113.1126 v 17.19527 h -132.9946 v -188.0732 h 128.9645 v 17.19526 h -109.0825 z"
       id="text1"
       transform="matrix(0.36764608,0,0,0.36764608,-131.84331,-1.5764995)"
       aria-label="VERDICARE" /></g></svg>
