<svg xmlns="http://www.w3.org/2000/svg" xmlns:xlink="http://www.w3.org/1999/xlink" xml:space="preserve" width="2829.494" height="472.178" viewBox="0 0 748.637 124.93"><defs><linearGradient id="a"><stop offset="0" style="stop-color:#98d244;stop-opacity:1"/><stop offset="1" style="stop-color:#0b8d79;stop-opacity:1"/></linearGradient><linearGradient xlink:href="#a" id="b" x1="61.498" x2="162.789" y1="32.92" y2="197.518" gradientUnits="userSpaceOnUse"/><linearGradient xlink:href="#a" id="c" x1="1705.675" x2="1705.675" y1="-90.827" y2="608.471" gradientUnits="userSpaceOnUse"/></defs><path d="M108.5 42.436v32.076l22.4-26.562a62.67 62.67 0 0 0-22.4-5.514zm-7 .144a62.67 62.67 0 0 0-22.404 5.364L101.5 74.511zm35.757 8.69L108.5 85.37v30.586l43.844-51.99a62.67 62.67 0 0 0-15.087-12.697Zm-64.444.082a62.67 62.67 0 0 0-15.169 12.6l43.856 52.005V85.37Zm83.909 18.28L108.5 126.816v30.585l57.228-67.862a62.67 62.67 0 0 0-9.006-19.907Zm-103.385.07a62.67 62.67 0 0 0-8.97 19.948L101.5 157.4v-30.584Zm113.988 28.8-58.072 68.865A62.67 62.67 0 0 0 167.67 105a62.67 62.67 0 0 0-.346-6.497zm-124.54.132a62.67 62.67 0 0 0-.456 6.366 62.67 62.67 0 0 0 58.418 62.367z" style="display:inline;opacity:1;fill:url(#b);fill-opacity:1;stroke:none;stroke-width:1.965;stroke-linecap:round;stroke-linejoin:miter;stroke-dasharray:none;stroke-opacity:1" transform="translate(-42.33 -42.436)"/><path d="m994.644 383.657-83.29-188.073h21.495l77.916 177.057h-11.822l78.454-177.057h20.15l-83.29 188.073zm147.772-103.977h99.41v16.926h-99.41zm2.15 86.782h113.112v17.195h-132.994V195.584h128.964v17.195h-109.082zm159.862 17.195V195.584h70.393q23.912 0 41.108 7.792 17.195 7.522 26.33 22.03 9.404 14.24 9.404 34.66 0 19.882-9.404 34.39-9.135 14.24-26.33 22.032-17.196 7.523-41.108 7.523h-59.377l8.866-9.135v68.781zm128.427 0-48.361-68.244h21.494l48.63 68.244zm-108.545-67.169-8.866-9.404h58.84q28.21 0 42.72-12.359 14.777-12.359 14.777-34.659 0-22.569-14.778-34.928-14.508-12.359-42.72-12.359h-58.84l8.867-9.403zm174.37 67.17V195.583h76.574q30.091 0 52.66 12.09 22.837 11.822 35.465 33.047 12.628 21.226 12.628 48.9 0 27.673-12.628 48.899-12.628 21.225-35.465 33.315-22.569 11.822-52.66 11.822zm19.883-17.196h55.616q24.987 0 43.257-9.672 18.538-9.941 28.748-27.137 10.21-17.464 10.21-40.032 0-22.838-10.21-40.033t-28.748-26.868q-18.27-9.94-43.257-9.94h-55.616zm202.044 17.195V195.584h19.882v188.073zm162.818 1.612q-21.226 0-39.227-6.985-18.001-7.255-31.166-20.151-13.165-12.897-20.688-30.36-7.255-17.464-7.255-38.152 0-20.689 7.255-38.152 7.523-17.464 20.688-30.36 13.434-12.897 31.435-19.883 18.001-7.254 39.227-7.254 20.419 0 38.42 6.985 18.001 6.717 30.36 20.42l-12.627 12.628q-11.553-11.822-25.524-16.927-13.972-5.374-30.092-5.374-16.927 0-31.435 5.911-14.509 5.643-25.256 16.39-10.747 10.478-16.926 24.718-5.911 13.97-5.911 30.898 0 16.926 5.91 31.166 6.18 13.971 16.927 24.718 10.747 10.478 25.256 16.39 14.508 5.642 31.435 5.642 16.12 0 30.092-5.374 13.97-5.373 25.524-17.195l12.628 12.628q-12.36 13.702-30.36 20.688-18.002 6.985-38.69 6.985zm76.644-1.612 85.976-188.073h19.614l85.976 188.073h-20.957l-78.99-176.52h8.06l-78.991 176.52zm33.853-50.242 5.91-16.12h109.352l5.91 16.12zm188.88 50.242V195.584h70.393q23.912 0 41.107 7.792 17.195 7.522 26.33 22.03 9.404 14.24 9.404 34.66 0 19.882-9.404 34.39-9.135 14.24-26.33 22.032-17.195 7.523-41.107 7.523h-59.378l8.867-9.135v68.781zm128.427 0-48.362-68.244h21.494l48.63 68.244zm-108.545-67.169-8.867-9.404h58.84q28.211 0 42.72-12.359 14.777-12.359 14.777-34.659 0-22.569-14.777-34.928-14.509-12.359-42.72-12.359h-58.84l8.867-9.403zm192.103-36.808h99.41v16.926h-99.41zm2.15 86.782h113.112v17.195h-132.995V195.584h128.965v17.195h-109.083z" aria-label="VERDICARE" style="font-size:268.676px;font-family:Montserrat;-inkscape-font-specification:Montserrat;white-space:pre;fill:url(#c)" transform="matrix(.36765 0 0 .36765 -174.173 -44.013)"/></svg>